<?xml version="1.0" encoding="UTF-8"?>
<svg id="Layer_1" data-name="Layer 1" xmlns="http://www.w3.org/2000/svg" viewBox="0 0 500 500">
  <defs>
    <style>
      .cls-1 {
        fill: #fff;
      }
    </style>
  </defs>
  <rect width="500" height="500"/>
  <path class="cls-1" d="M320.04,257.29c22.61-8.53,37.27-30.91,37.27-58.29,0-31.95-21.74-64.8-70.23-67.16v-35.39h-46.77v35.23h-15.26v-35.23h-46.77v35.23h-33.2v259.62h33.2v33.25h46.77v-33.25h15.26v33.25h46.77v-33.25c45.73-.51,75.19-28.31,75.19-71.12,0-29.22-17.63-54.73-42.24-62.89ZM204.02,285.04h67.64c21.11,0,30.56,13.81,30.56,27.5,0,17.23-11.14,27.12-30.56,27.12h-67.64v-54.61ZM269.74,233.76h-65.72v-50.79h65.72c16.45,0,27.5,10.28,27.5,25.59s-10.79,25.2-27.5,25.2Z"/>
</svg>