<?xml version="1.0" encoding="UTF-8"?>
<svg id="Layer_1" data-name="Layer 1" xmlns="http://www.w3.org/2000/svg" viewBox="0 0 400 400">
  <defs>
    <style>
      .cls-1 {
        fill: #fff;
      }
    </style>
  </defs>
  <circle class="cls-1" cx="200" cy="200" r="200"/>
  <path d="M260.23,197.37c18.47-6.97,30.44-25.25,30.44-47.61,0-26.1-17.76-52.93-57.36-54.86v-28.9h-38.2v28.78h-12.46v-28.78h-38.2v28.78h-27.12v212.06h27.12v27.16h38.2v-27.16h12.46v27.16h38.2v-27.16c37.35-.42,61.42-23.13,61.42-58.1,0-23.87-14.4-44.7-34.5-51.37ZM165.46,220.04h55.25c17.24,0,24.96,11.28,24.96,22.46,0,14.08-9.1,22.15-24.96,22.15h-55.25v-44.61ZM219.14,178.15h-53.68v-41.49h53.68c13.44,0,22.46,8.4,22.46,20.9s-8.82,20.59-22.46,20.59Z"/>
</svg>