<?xml version="1.0" encoding="UTF-8"?>
<svg id="Layer_1" data-name="Layer 1" xmlns="http://www.w3.org/2000/svg" viewBox="0 0 400 400">
  <defs>
    <style>
      .cls-1 {
        fill: #fff;
      }
    </style>
  </defs>
  <circle class="cls-1" cx="200" cy="200" r="200"/>
  <path d="M167.94,294.69c-25.51-5.2-46.89-16.69-60.15-31.99l33.17-41.25c13.28,16.71,40.03,28.11,65.44,27.67,10.73-.19,14.88-5.06,14.82-8.45-.28-15.81-90.33-13.67-91.29-68.73-.56-32.19,25.1-66.81,76.75-68.84l5.48-25.8,36.14-.63-6.25,30.05c19,4.47,36.66,13.2,50.16,26.24l-33.47,40.12c-15.8-15.26-39.93-22.18-57.71-21.87-7.34.13-11.52,3.59-11.44,7.82.26,14.96,90.62,14.24,91.57,68.73.69,39.53-29.58,68.86-77.86,69.99l-5.21,24.94-36.14.63,6-28.63Z"/>
</svg>